<svg width="16" height="16" viewBox="0 0 16 16" fill="none" xmlns="http://www.w3.org/2000/svg">
<path d="M13.875 12.375H3.125V2.625C3.125 2.55625 3.06875 2.5 3 2.5H2.125C2.05625 2.5 2 2.55625 2 2.625V13.375C2 13.4438 2.05625 13.5 2.125 13.5H13.875C13.9438 13.5 14 13.4438 14 13.375V12.5C14 12.4312 13.9438 12.375 13.875 12.375ZM4.25 11.375H12.625C12.6938 11.375 12.75 11.3188 12.75 11.25V4.4375C12.75 4.325 12.6141 4.27031 12.5359 4.34844L9.25 7.63438L7.29063 5.69688C7.26713 5.67361 7.23541 5.66056 7.20234 5.66056C7.16928 5.66056 7.13756 5.67361 7.11406 5.69688L4.16094 8.65938C4.14947 8.67087 4.14039 8.68451 4.13422 8.69953C4.12805 8.71455 4.12492 8.73064 4.125 8.74687V11.25C4.125 11.3188 4.18125 11.375 4.25 11.375Z" fill="black"/>
</svg>
