<svg width="16" height="14" viewBox="0 0 16 14" fill="none" xmlns="http://www.w3.org/2000/svg">
<path d="M14.859 6.96903C14.859 6.96747 14.8575 6.96747 14.8575 6.96591L14.8293 6.9331C14.8278 6.93153 14.8262 6.92841 14.8231 6.92685C14.8121 6.91435 14.7996 6.90185 14.7887 6.88935L8.75121 0.856534L8.34652 0.451846C8.25431 0.360247 8.12962 0.308838 7.99965 0.308838C7.86967 0.308838 7.74498 0.360247 7.65277 0.451846L1.21058 6.89091C1.0942 7.00668 1.00831 7.14947 0.960584 7.30653L0.951209 7.33935L0.946521 7.35653L0.941833 7.37528C0.938708 7.38622 0.937146 7.39716 0.935584 7.4081C0.935584 7.40966 0.935583 7.41278 0.934021 7.41435C0.924646 7.46122 0.919958 7.5081 0.918396 7.55653V7.6081C0.918396 7.61591 0.918396 7.62372 0.919959 7.63153C0.919959 7.63935 0.919959 7.6456 0.921521 7.65341C0.921521 7.66122 0.923083 7.66903 0.923083 7.67685C0.923083 7.68622 0.924646 7.6956 0.926208 7.70497C0.926208 7.70966 0.927771 7.71435 0.927771 7.71903L0.932459 7.7581V7.75966C1.01215 8.23622 1.43558 8.5956 1.93246 8.5956H2.59652V13.6878H13.4043V8.59872H14.0825C14.2168 8.59872 14.3465 8.57216 14.4653 8.52216C14.584 8.47216 14.695 8.39872 14.7903 8.30497C14.8834 8.21218 14.9571 8.10184 15.0073 7.98034C15.0574 7.85884 15.083 7.7286 15.0825 7.59716C15.0825 7.36747 15.0043 7.14716 14.859 6.96903V6.96903ZM8.87465 12.5628H7.12465V9.37528H8.87465V12.5628ZM12.2793 7.47372V12.5628H9.87465V9.00028C9.87465 8.65497 9.59496 8.37528 9.24965 8.37528H6.74965C6.40433 8.37528 6.12465 8.65497 6.12465 9.00028V12.5628H3.71996V7.47372H2.21996L8.00121 1.69716L8.36215 2.0581L13.7809 7.47372H12.2793Z" fill="black"/>
</svg>
