<svg width="24" height="24" viewBox="0 0 24 24" fill="none" xmlns="http://www.w3.org/2000/svg">
<path fill-rule="evenodd" clip-rule="evenodd" d="M12.0282 2C6.50537 2 2.02821 6.47715 2.02821 12C2.01947 14.3091 2.81901 16.5485 4.28821 18.33L2.28821 20.33C2.00447 20.6176 1.92162 21.0476 2.07821 21.42C2.24808 21.788 2.62327 22.017 3.02821 22H12.0282C17.5511 22 22.0282 17.5228 22.0282 12C22.0282 6.47715 17.5511 2 12.0282 2ZM12.0282 20H5.43821L6.36821 19.07C6.75594 18.68 6.75594 18.05 6.36821 17.66C3.6681 14.9629 3.2491 10.7341 5.36744 7.55952C7.48578 4.38498 11.5515 3.1488 15.0784 4.60691C18.6053 6.06503 20.6112 9.81138 19.8693 13.555C19.1275 17.2986 15.8446 19.997 12.0282 20Z" fill="#BFBFBF"/>
</svg>
