<svg width="16" height="16" viewBox="0 0 16 16" fill="none" xmlns="http://www.w3.org/2000/svg">
<path d="M2.125 8.62482H3.11875C3.1875 8.62482 3.24375 8.56857 3.24375 8.49982V4.51076H11.5031V5.64513C11.5031 5.67482 11.5125 5.70295 11.5312 5.72638C11.5418 5.73988 11.5549 5.75116 11.5698 5.75957C11.5847 5.76798 11.6011 5.77336 11.6181 5.77539C11.6351 5.77742 11.6523 5.77607 11.6688 5.77142C11.6853 5.76676 11.7006 5.75889 11.7141 5.74826L13.9531 3.99045C14.0203 3.91232 14.0094 3.82951 13.9531 3.7842L11.7141 2.02795C11.691 2.00952 11.6623 1.99958 11.6328 1.99982C11.5609 1.99982 11.5016 2.0592 11.5016 2.13107V3.26545H3.12031C2.50312 3.26545 2 3.76857 2 4.38732V8.49982C2 8.56857 2.05625 8.62482 2.125 8.62482ZM13.875 7.37482H12.8813C12.8125 7.37482 12.7563 7.43107 12.7563 7.49982V11.4889H4.49687V10.3545C4.49687 10.3248 4.4875 10.2967 4.46875 10.2733C4.45822 10.2598 4.44513 10.2485 4.43022 10.2401C4.41532 10.2317 4.39889 10.2263 4.3819 10.2243C4.3649 10.2222 4.34768 10.2236 4.33121 10.2282C4.31474 10.2329 4.29935 10.2408 4.28594 10.2514L2.04688 12.0092C1.97969 12.0873 1.99063 12.1701 2.04688 12.2154L4.28594 13.9717C4.30937 13.9904 4.3375 13.9998 4.36719 13.9998C4.43906 13.9998 4.49844 13.9404 4.49844 13.8686V12.7342H12.8828C13.5 12.7342 14.0031 12.2311 14.0031 11.6123V7.49982C14 7.43107 13.9438 7.37482 13.875 7.37482Z" fill="black"/>
</svg>
