<svg width="24" height="24" viewBox="0 0 24 24" fill="none" xmlns="http://www.w3.org/2000/svg">
<path fill-rule="evenodd" clip-rule="evenodd" d="M19.645 12.4803C19.4353 12.4803 19.216 12.4133 19.0062 12.3655C18.5815 12.2716 18.164 12.147 17.7572 11.9926C16.8412 11.6584 15.8214 12.0708 15.3928 12.9488L15.183 13.3791C14.2544 12.861 13.401 12.2175 12.6469 11.4667C11.8982 10.7103 11.2566 9.85453 10.7401 8.92319L11.1405 8.65546C12.0159 8.22558 12.4272 7.20275 12.0939 6.28408C11.9425 5.87523 11.8183 5.45678 11.7221 5.03146C11.6744 4.8211 11.6363 4.60117 11.6077 4.38124C11.3685 2.98976 10.1552 1.97978 8.74741 2.00031H5.88714C5.0557 1.99248 4.26201 2.34789 3.71279 2.97399C3.16358 3.60008 2.9132 4.43488 3.02687 5.26095C4.07176 13.5017 10.5568 19.9821 18.7774 21H19.1397C19.8428 21.001 20.5216 20.7423 21.0465 20.2733C21.6567 19.726 22.0038 18.9428 22 18.1218V15.2532C21.9759 13.8835 20.9895 12.7221 19.645 12.4803ZM20 18.0518C19.9997 18.322 19.8826 18.5789 19.6788 18.7572C19.4659 18.9417 19.1841 19.0273 18.904 18.9923C11.6253 18.0633 5.90474 12.3414 5.00603 5.09125C4.97564 4.81285 5.06099 4.53419 5.24223 4.32002C5.42133 4.11706 5.67946 4.00058 5.95083 4.00024H8.78523C9.23844 3.9902 9.63494 4.30202 9.73003 4.74326C9.76782 5.00034 9.81506 5.25428 9.87175 5.50509C9.98089 6.00089 10.1261 6.48812 10.3064 6.96292L8.98364 7.57426C8.75522 7.67859 8.57796 7.86921 8.49108 8.10397C8.4042 8.33872 8.41486 8.59826 8.52068 8.82517C9.88044 11.7246 12.2217 14.0553 15.1343 15.4089C15.3643 15.503 15.6223 15.503 15.8523 15.4089C16.0903 15.3242 16.2843 15.148 16.3909 14.9198L16.9766 13.6031C17.4651 13.777 17.9636 13.9214 18.4694 14.0357C18.7214 14.0922 18.9765 14.1392 19.2347 14.1768C19.678 14.2715 19.9912 14.6662 19.9811 15.1173L20 18.0518Z" fill="#8F92A1"/>
</svg>
