<svg width="14" height="14" viewBox="0 0 14 14" fill="none" xmlns="http://www.w3.org/2000/svg">
<path d="M13.4812 5.20474L7.29372 0.704736C7.20851 0.642302 7.10561 0.608643 6.99997 0.608643C6.89433 0.608643 6.79144 0.642302 6.70622 0.704736L0.518722 5.20474C0.433275 5.26686 0.369708 5.35445 0.337144 5.45495C0.30458 5.55545 0.304695 5.66368 0.337472 5.76411L2.70153 13.0454C2.73417 13.1457 2.79768 13.2331 2.883 13.2951C2.96831 13.3571 3.07106 13.3906 3.17653 13.3907H10.825C11.0422 13.3907 11.2328 13.2516 11.3 13.0454L13.664 5.76411C13.7297 5.55786 13.6562 5.33286 13.4812 5.20474V5.20474ZM12.1031 5.51567L10.564 6.01567L7.43903 3.75474V2.12349L12.1031 5.51567ZM6.28122 7.86255L4.88903 9.77349L4.02654 7.12974L6.28122 7.86255ZM4.46404 6.35005L6.56247 4.83286V7.03286L4.46404 6.35005ZM6.99997 8.36255L8.46716 10.3766H5.53278L6.99997 8.36255ZM7.43903 4.83286L9.53591 6.35005L7.43903 7.0313V4.83286V4.83286ZM7.71872 7.86255L9.97341 7.12974L9.11091 9.77349L7.71872 7.86255ZM6.56247 2.12349V3.75474L3.43591 6.01567L1.89685 5.51567L6.56247 2.12349V2.12349ZM1.64529 6.3563L2.99685 6.79536L4.2531 10.6454L3.41247 11.8L1.64529 6.3563V6.3563ZM4.11091 12.3282L4.89685 11.25H9.10466L9.8906 12.3282H4.11091ZM10.5875 11.8L9.74685 10.6454L11.0031 6.79536L12.3547 6.3563L10.5875 11.8Z" fill="black"/>
</svg>
