<svg width="229" height="56" viewBox="0 0 229 56" fill="none" xmlns="http://www.w3.org/2000/svg">
<path d="M17.7597 37.1393C17.7234 37.1393 17.7234 37.1393 17.7597 37.1393L12.8585 32.2804L2.2575 21.7708C-1.19147 28.9331 -0.683199 37.4992 3.746 44.2657C4.65362 45.5974 5.67016 46.8211 6.79561 47.9729C9.80892 50.9602 14.7101 50.9602 17.7234 47.9729C20.773 44.9855 20.773 40.1266 17.7597 37.1393Z" fill="url(#paint0_linear)"/>
<path d="M39.566 15.8102C39.4942 15.7011 39.3865 15.6285 39.2788 15.5194L34.4339 10.6128L23.9545 0C20.5452 7.2327 21.0476 15.8829 25.426 22.7158C26.3232 24.0605 27.328 25.2963 28.4406 26.4593C34.398 32.4926 34.398 42.3059 28.4406 48.3392C22.6626 54.1908 13.3675 54.3725 7.37415 48.8843C16.3821 57.3891 30.4862 57.2074 39.243 48.3392C48.1433 39.3982 48.2509 24.9328 39.566 15.8102Z" fill="url(#paint1_linear)"/>
<path d="M28.8625 26.3444L23.987 21.4568L13.4414 10.885C10.0105 18.0898 10.5161 26.7065 14.9221 33.513C15.825 34.8525 16.8362 36.0835 17.9558 37.2421C20.9533 40.247 20.9533 45.1347 17.9558 48.1397C15.0305 51.0723 10.3717 51.1447 7.37415 48.4293C13.4053 54.1859 22.9396 54.0773 28.8625 48.1397C34.8575 42.1297 34.8575 32.3544 28.8625 26.3444Z" fill="url(#paint2_linear)"/>
<path d="M66.748 36.616C66.748 36.616 66.5893 36.5227 66.272 36.336C65.9547 36.1493 65.5347 35.944 65.012 35.72C64.4893 35.4773 63.92 35.2627 63.304 35.076C62.688 34.8893 62.0813 34.796 61.484 34.796C61.0173 34.796 60.6347 34.8707 60.336 35.02C60.0373 35.1693 59.888 35.4213 59.888 35.776C59.888 36.2987 60.2147 36.672 60.868 36.896C61.54 37.1013 62.4453 37.3907 63.584 37.764C64.816 38.1373 65.88 38.5667 66.776 39.052C67.672 39.5373 68.3627 40.1627 68.848 40.928C69.3333 41.6747 69.576 42.6733 69.576 43.924C69.576 45.1187 69.3613 46.1267 68.932 46.948C68.5027 47.7507 67.924 48.3947 67.196 48.88C66.468 49.3653 65.656 49.72 64.76 49.944C63.864 50.1493 62.9493 50.252 62.016 50.252C61.064 50.252 60.0653 50.1587 59.02 49.972C57.9933 49.7667 56.9947 49.496 56.024 49.16C55.0533 48.8053 54.1667 48.3947 53.364 47.928L55.716 43.14C55.716 43.14 55.9027 43.252 56.276 43.476C56.6493 43.7 57.144 43.952 57.76 44.232C58.376 44.512 59.0573 44.764 59.804 44.988C60.5693 45.212 61.3347 45.324 62.1 45.324C62.6973 45.324 63.108 45.2493 63.332 45.1C63.5747 44.932 63.696 44.7173 63.696 44.456C63.696 44.064 63.4907 43.7653 63.08 43.56C62.6693 43.336 62.128 43.1307 61.456 42.944C60.8027 42.7387 60.0747 42.5053 59.272 42.244C57.5173 41.6467 56.2387 40.9373 55.436 40.116C54.6333 39.276 54.232 38.128 54.232 36.672C54.232 35.1973 54.5773 33.9653 55.268 32.976C55.9587 31.9867 56.864 31.24 57.984 30.736C59.1227 30.2133 60.3453 29.952 61.652 29.952C62.6227 29.952 63.556 30.0733 64.452 30.316C65.3667 30.54 66.216 30.82 67 31.156C67.8027 31.492 68.5027 31.8093 69.1 32.108L66.748 36.616ZM87.0253 50V39.528L83.6933 46.892H80.7813L77.4493 39.528V50H71.9893V30.12H77.9533L82.2373 39.472L86.5493 30.12H92.4853V50H87.0253ZM104.848 50.168C103.336 50.168 101.964 49.888 100.732 49.328C99.4997 48.7493 98.4357 47.984 97.5397 47.032C96.6624 46.0613 95.981 44.9787 95.4957 43.784C95.029 42.5707 94.7957 41.32 94.7957 40.032C94.7957 38.7067 95.0477 37.4467 95.5517 36.252C96.0557 35.0573 96.7557 33.9933 97.6517 33.06C98.5664 32.108 99.6397 31.3613 100.872 30.82C102.122 30.2787 103.485 30.008 104.96 30.008C106.472 30.008 107.844 30.2973 109.076 30.876C110.308 31.436 111.362 32.2013 112.24 33.172C113.117 34.1427 113.789 35.2347 114.256 36.448C114.741 37.6427 114.984 38.8747 114.984 40.144C114.984 41.4507 114.732 42.7013 114.228 43.896C113.742 45.0907 113.042 46.164 112.128 47.116C111.232 48.0493 110.168 48.796 108.936 49.356C107.704 49.8973 106.341 50.168 104.848 50.168ZM100.34 40.088C100.34 40.9653 100.498 41.8053 100.816 42.608C101.152 43.4107 101.656 44.064 102.328 44.568C103.018 45.072 103.877 45.324 104.904 45.324C105.968 45.324 106.826 45.0627 107.48 44.54C108.152 44.0173 108.646 43.3547 108.964 42.552C109.281 41.7307 109.44 40.8907 109.44 40.032C109.44 39.136 109.272 38.296 108.936 37.512C108.6 36.728 108.096 36.0933 107.424 35.608C106.752 35.104 105.902 34.852 104.876 34.852C103.83 34.852 102.972 35.1133 102.3 35.636C101.628 36.14 101.133 36.7933 100.816 37.596C100.498 38.38 100.34 39.2107 100.34 40.088ZM120.341 30.12L124.233 43.7L128.069 30.12H133.809L126.949 50H121.517L114.573 30.12H120.341ZM149.485 45.24V50H135.317V30.12H149.233V34.88H140.777V37.68H148.001V42.104H140.777V45.24H149.485ZM151.716 50V44.848H156.028V50H151.716ZM164.331 39.892C164.331 38.6787 164.555 37.4933 165.003 36.336C165.47 35.16 166.142 34.096 167.019 33.144C167.896 32.192 168.96 31.436 170.211 30.876C171.48 30.2973 172.908 30.008 174.495 30.008C176.399 30.008 178.06 30.4093 179.479 31.212C180.898 31.996 181.952 33.0413 182.643 34.348L178.471 37.316C178.228 36.6627 177.874 36.1587 177.407 35.804C176.959 35.4493 176.464 35.2067 175.923 35.076C175.4 34.9267 174.887 34.852 174.383 34.852C173.338 34.852 172.479 35.1133 171.807 35.636C171.154 36.1587 170.668 36.8213 170.351 37.624C170.034 38.408 169.875 39.22 169.875 40.06C169.875 40.9747 170.052 41.8333 170.407 42.636C170.78 43.4387 171.303 44.092 171.975 44.596C172.666 45.0813 173.487 45.324 174.439 45.324C174.943 45.324 175.456 45.2493 175.979 45.1C176.502 44.932 176.978 44.6707 177.407 44.316C177.836 43.9613 178.163 43.4853 178.387 42.888L182.839 45.548C182.447 46.5187 181.794 47.3493 180.879 48.04C179.964 48.7307 178.928 49.2627 177.771 49.636C176.614 49.9907 175.466 50.168 174.327 50.168C172.852 50.168 171.499 49.8787 170.267 49.3C169.054 48.7027 167.999 47.9187 167.103 46.948C166.226 45.9587 165.544 44.8573 165.059 43.644C164.574 42.412 164.331 41.1613 164.331 39.892ZM184.782 50V30.12H190.242V50H184.782ZM209.153 34.88H203.441V50H197.981V34.88H192.241V30.12H209.153V34.88ZM215.174 30.12L218.73 38.24L222.37 30.12H228.306L221.446 43.42V50H216.014V43.364L209.266 30.12H215.174Z" fill="url(#paint3_linear)"/>
<defs>
<linearGradient id="paint0_linear" x1="3.86695" y1="29.6438" x2="3.86695" y2="43.0557" gradientUnits="userSpaceOnUse">
<stop stop-color="#2CA8FF"/>
<stop offset="1" stop-color="#4ECFFF"/>
</linearGradient>
<linearGradient id="paint1_linear" x1="26.687" y1="-27.5647" x2="-25.1286" y2="8.73922" gradientUnits="userSpaceOnUse">
<stop stop-color="#23AE87"/>
<stop offset="1" stop-color="#81D76D"/>
</linearGradient>
<linearGradient id="paint2_linear" x1="7.37415" y1="10.885" x2="7.37415" y2="52.6711" gradientUnits="userSpaceOnUse">
<stop stop-color="#FAD961"/>
<stop offset="1" stop-color="#F76B1C"/>
</linearGradient>
<linearGradient id="paint3_linear" x1="141" y1="7.5" x2="129.045" y2="71.2585" gradientUnits="userSpaceOnUse">
<stop stop-color="#23AE87"/>
<stop offset="1" stop-color="#81D76D"/>
</linearGradient>
</defs>
</svg>
